<svg width="51" height="86" viewBox="0 0 51 86" fill="none" xmlns="http://www.w3.org/2000/svg">
<path d="M2.23171 80.4348L5.01623 84.644C6.21231 86.452 8.88972 86.452 10.0858 84.644L12.8703 80.4348C13.799 79.0309 15.711 78.6545 17.1119 79.5998L21.312 82.434C23.1162 83.6514 25.5898 82.6374 25.9957 80.514L26.9407 75.5706C27.2558 73.9219 28.8767 72.85 30.5365 73.1928L35.5129 74.2206C37.6504 74.662 39.5437 72.7884 39.0976 70.6729L38.0591 65.7479C37.7127 64.1053 38.7958 62.5012 40.4617 62.1893L45.4567 61.2541C47.6023 60.8524 48.6269 58.4043 47.3968 56.6188L44.533 52.4621C43.5778 51.0757 43.9581 49.1834 45.3767 48.2643L49.6298 45.5086C51.4567 44.3249 51.4567 41.6751 49.6298 40.4914L45.3767 37.7357C43.9581 36.8166 43.5778 34.9243 44.533 33.5379L47.3968 29.3812C48.6269 27.5957 47.6023 25.1476 45.4567 24.7459L40.4617 23.8107C38.7958 23.4988 37.7127 21.8947 38.0591 20.2521L39.0976 15.3271C39.5437 13.2116 37.6504 11.338 35.5129 11.7794L30.5365 12.8072C28.8767 13.15 27.2558 12.0781 26.9407 10.4294L25.9957 5.486C25.5898 3.36259 23.1162 2.34857 21.312 3.566L17.1119 6.40022C15.711 7.3455 13.799 6.96911 12.8703 5.56524L10.0858 1.35604C8.88972 -0.452007 6.21231 -0.452007 5.01624 1.35604L2.23172 5.56524C1.78451 6.24127 0.893749 6.6034 -6.9107e-07 6.63481L-7.05053e-06 79.3786C0.893742 79.3966 1.7845 79.7587 2.23171 80.4348Z"/>
</svg>
