<svg width="51" height="86" viewBox="0 0 51 86" fill="none" xmlns="http://www.w3.org/2000/svg">
<path d="M48.7683 5.56524L45.9838 1.35604C44.7877 -0.452013 42.1103 -0.452011 40.9142 1.35604L38.1297 5.56524C37.201 6.96911 35.289 7.3455 33.8881 6.40022L29.688 3.566C27.8838 2.34857 25.4102 3.36258 25.0043 5.48599L24.0593 10.4294C23.7442 12.0781 22.1233 13.15 20.4635 12.8072L15.4871 11.7794C13.3496 11.338 11.4563 13.2116 11.9024 15.3271L12.9409 20.2521C13.2873 21.8947 12.2042 23.4988 10.5383 23.8107L5.54327 24.7459C3.39769 25.1476 2.37309 27.5957 3.60323 29.3812L6.46705 33.5379C7.4222 34.9243 7.04188 36.8166 5.62335 37.7357L1.37019 40.4914C-0.456733 41.6751 -0.45673 44.3249 1.3702 45.5086L5.62335 48.2643C7.04188 49.1834 7.4222 51.0757 6.46704 52.4621L3.60323 56.6188C2.37309 58.4043 3.39769 60.8524 5.54327 61.2541L10.5383 62.1893C12.2042 62.5012 13.2873 64.1053 12.9409 65.7479L11.9024 70.6729C11.4563 72.7884 13.3496 74.662 15.4871 74.2206L20.4635 73.1928C22.1233 72.85 23.7442 73.9219 24.0593 75.5706L25.0043 80.514C25.4102 82.6374 27.8838 83.6514 29.688 82.434L33.8881 79.5998C35.289 78.6545 37.201 79.0309 38.1297 80.4348L40.9142 84.644C42.1103 86.452 44.7877 86.452 45.9838 84.644L48.7683 80.4348C49.2155 79.7587 50.1063 79.3966 51 79.3652V6.62141C50.1063 6.60336 49.2155 6.24126 48.7683 5.56524Z"/>
</svg>
