<svg width="117" height="86" viewBox="0 0 117 86" fill="none" xmlns="http://www.w3.org/2000/svg">
<path d="M56.0234 1.35604L53.3243 5.44557C52.9091 6.26143 52.0825 6.62141 51 6.62141V79.3652C51.9595 79.3652 52.9091 79.6809 53.3243 80.4348L56.0815 84.644C57.2659 86.452 59.917 86.452 61.1014 84.644L63.8586 80.4348C64.29 79.7762 65.1276 79.3683 66 79.3683V6.62118C65.1026 6.62118 64.2416 6.23862 63.8005 5.56524L61.0433 1.35604C59.859 -0.452013 57.2078 -0.452011 56.0234 1.35604Z"/>
<path d="M48.7683 5.56524L45.9838 1.35604C44.7877 -0.452013 42.1103 -0.452011 40.9142 1.35604L38.1297 5.56524C37.201 6.96911 35.289 7.3455 33.8881 6.40022L29.688 3.566C27.8838 2.34857 25.4102 3.36258 25.0043 5.48599L24.0593 10.4294C23.7442 12.0781 22.1233 13.15 20.4635 12.8072L15.4871 11.7794C13.3496 11.338 11.4563 13.2116 11.9024 15.3271L12.9409 20.2521C13.2873 21.8947 12.2042 23.4988 10.5383 23.8107L5.54327 24.7459C3.39769 25.1476 2.37309 27.5957 3.60323 29.3812L6.46705 33.5379C7.4222 34.9243 7.04188 36.8166 5.62335 37.7357L1.37019 40.4914C-0.456733 41.6751 -0.45673 44.3249 1.3702 45.5086L5.62335 48.2643C7.04188 49.1834 7.4222 51.0757 6.46704 52.4621L3.60323 56.6188C2.37309 58.4043 3.39769 60.8524 5.54327 61.2541L10.5383 62.1893C12.2042 62.5012 13.2873 64.1053 12.9409 65.7479L11.9024 70.6729C11.4563 72.7884 13.3496 74.662 15.4871 74.2206L20.4635 73.1928C22.1233 72.85 23.7442 73.9219 24.0593 75.5706L25.0043 80.514C25.4102 82.6374 27.8838 83.6514 29.688 82.434L33.8881 79.5998C35.289 78.6545 37.201 79.0309 38.1297 80.4348L40.9142 84.644C42.1103 86.452 44.7877 86.452 45.9838 84.644L48.7683 80.4348C49.2155 79.7587 50.1063 79.3966 51 79.3652V6.62141C50.1063 6.60336 49.2155 6.24126 48.7683 5.56524Z"/>
<path d="M68.2317 80.4348L71.0162 84.644C72.2123 86.452 74.8897 86.452 76.0858 84.644L78.8703 80.4348C79.799 79.0309 81.711 78.6545 83.1119 79.5998L87.312 82.434C89.1162 83.6514 91.5898 82.6374 91.9957 80.514L92.9407 75.5706C93.2558 73.9219 94.8767 72.85 96.5365 73.1928L101.513 74.2206C103.65 74.662 105.544 72.7884 105.098 70.6729L104.059 65.7479C103.713 64.1053 104.796 62.5012 106.462 62.1893L111.457 61.2541C113.602 60.8524 114.627 58.4043 113.397 56.6188L110.533 52.4621C109.578 51.0757 109.958 49.1834 111.377 48.2643L115.63 45.5086C117.457 44.3249 117.457 41.6751 115.63 40.4914L111.377 37.7357C109.958 36.8166 109.578 34.9243 110.533 33.5379L113.397 29.3812C114.627 27.5957 113.602 25.1476 111.457 24.7459L106.462 23.8107C104.796 23.4988 103.713 21.8947 104.059 20.2521L105.098 15.3271C105.544 13.2116 103.65 11.338 101.513 11.7794L96.5365 12.8072C94.8767 13.15 93.2558 12.0781 92.9407 10.4294L91.9957 5.486C91.5898 3.36259 89.1162 2.34857 87.312 3.566L83.1119 6.40022C81.711 7.3455 79.799 6.96911 78.8703 5.56524L76.0858 1.35604C74.8897 -0.452007 72.2123 -0.452007 71.0162 1.35604L68.2317 5.56524C67.7845 6.24127 66.8937 6.6034 66 6.63481L66 79.3786C66.8937 79.3966 67.7845 79.7587 68.2317 80.4348Z"/>
</svg>
