<svg xmlns="http://www.w3.org/2000/svg">

        <path d="M385.502 361.265C373.067 372.707 371.29 423.416 371.29 423.416C362.408 426.376 334.694 432.295 294.9 432.295C245.158 432.295 90.6019 323.974 58.6248 315.096C26.6476 306.217 0 307.992 0 348.835C0 389.677 85.2724 458.931 85.2724 544.168C85.2724 629.404 23.0946 637.12 23.0946 742.264C23.0946 776.992 67.5073 796.324 154.556 709.312C241.605 622.301 330.431 629.404 353.525 629.404C376.62 629.404 385.502 631.179 403.267 666.694C440.574 732.397 460.116 876.233 502.752 854.924C556.047 828.288 593.354 751.931 611.119 709.312C652.334 726.36 746.726 735.357 788.77 737.725C785.217 758.442 778.111 803.783 778.111 819.409C778.111 838.942 765.675 935.786 831.406 911.748C889.675 890.439 939.181 798.692 955.761 755.482C1280.86 767.912 1536.68 585.01 1614.85 538.84C1628.48 530.787 1618.79 507.723 1604.19 513.98C1579.32 524.634 1556.81 521.675 1543.79 521.083C1562.74 506.877 1606.77 486.638 1589.97 467.81C1458.51 320.423 1211.58 222.756 1010.83 222.756C965.246 145.167 909.572 43.4055 874.042 7.89041C858.054 -8.09137 835.413 0.501103 833.182 30.9752C824.655 147.465 792.915 227.492 778.111 252.944C683.956 263.599 524.07 341.732 479.657 375.471C479.657 375.471 397.938 349.823 385.502 361.265Z"/>

</svg>
