<svg width="1622" height="916" viewBox="0 0 1622 916" fill="none" xmlns="http://www.w3.org/2000/svg">
<path fill-rule="evenodd" clip-rule="evenodd" d="M371.29 423.416C371.29 423.416 373.067 372.707 385.502 361.265C397.938 349.823 479.657 375.471 479.657 375.471C524.07 341.732 683.956 263.599 778.111 252.944C792.915 227.492 824.655 147.465 833.182 30.9752C835.413 0.50111 858.054 -8.09136 874.042 7.89042C903.297 37.1327 946.208 111.287 985.901 179.881C994.415 194.595 1002.78 209.053 1010.83 222.756C1211.58 222.756 1458.51 320.423 1589.97 467.81C1603.23 482.673 1578.58 498.415 1558.29 511.374C1552.88 514.832 1547.78 518.091 1543.79 521.083C1545.28 521.151 1546.91 521.25 1548.65 521.357C1562.02 522.175 1582.18 523.409 1604.19 513.98C1618.79 507.723 1628.48 530.787 1614.85 538.84C1607.16 543.378 1597.77 549.236 1586.76 556.099C1485.73 619.073 1248.91 766.691 955.761 755.482C939.181 798.692 889.675 890.439 831.406 911.748C772.746 933.2 776.34 858.379 777.792 828.15C777.967 824.506 778.111 821.51 778.111 819.409C778.111 803.783 785.217 758.442 788.77 737.725C746.726 735.357 652.334 726.36 611.119 709.312C593.354 751.931 556.047 828.288 502.752 854.924C475.444 868.572 457.61 814.474 438.514 756.55C427.796 724.036 416.68 690.316 403.267 666.694C385.502 631.179 376.62 629.404 353.525 629.404C352.128 629.404 350.49 629.378 348.626 629.348C319.688 628.889 236.338 627.565 154.556 709.312C67.5073 796.324 23.0946 776.992 23.0946 742.264C23.0946 686.936 40.3118 658.585 56.6263 631.721C71.3152 607.534 85.2724 584.551 85.2724 544.168C85.2724 493.798 55.4944 449.01 31.1324 412.367C14.2686 387.003 0 365.542 0 348.835C0 307.992 26.6476 306.217 58.6248 315.096C70.4067 318.367 98.8291 335.138 132.518 355.016C190.265 389.09 263.486 432.295 294.9 432.295C334.694 432.295 362.408 426.376 371.29 423.416ZM872.995 347.5C867 375.765 866.662 459 868.495 498C868.495 520.667 870.095 577.1 876.495 621.5C884.495 677 925.495 715 960.995 710.5C988.389 707.028 1020.15 677.226 1034.04 661.208C1034.98 660.126 1035.37 658.689 1035.16 657.272L1024.47 585.97C1023.98 582.711 1020.57 580.9 1017.82 582.72C1013.92 585.3 1009.57 588.748 1005.11 592.279L1005.11 592.28L1005.11 592.281C995.141 600.179 984.636 608.5 977.495 608.5C964.995 608.5 950.495 587 947.995 577.5C947.956 577.35 947.914 577.194 947.871 577.031C947.806 576.788 947.736 576.532 947.662 576.261L947.576 575.945L947.491 575.634C944.288 563.907 934.609 528.473 936.495 445C938.495 356.5 954.495 349.591 968.495 344.5C977.761 341.131 989.864 346.63 1002.41 352.333C1004.76 353.4 1007.13 354.475 1009.5 355.5C1015.5 358.1 1020.64 342 1024.5 323.5C1026.5 313.858 1028.78 291 1024.5 286.5C1014.5 276 985.495 255.5 960.995 255.5C939.995 255.5 918.002 262.405 901.495 282.5C889.995 296.5 879.995 314.5 872.995 347.5ZM828.789 283.84L848.722 355.154C849.613 358.342 847.216 361.526 843.917 361.793C837.031 362.35 828.014 363.805 822.495 367C812.995 372.5 786.113 412 822.495 463.5C869.122 529.5 854.657 589 846.495 611C837.231 635.974 800.387 690.698 754.512 695.251C752.41 695.46 750.465 694.193 749.671 692.236L717.603 613.194C716.48 610.426 718.011 607.3 720.838 606.334C740.794 599.519 771.842 582.898 775.495 566C780.557 542.591 768.766 521.062 755.502 496.844C752.684 491.699 749.799 486.432 746.995 481C730.995 450 721.412 423.215 724.995 392.5C728.495 362.5 734.061 335.301 762.995 310.5C782.944 293.401 806.501 278.108 825.097 280.476C826.901 280.706 828.299 282.088 828.789 283.84ZM632.495 673.475V338.371C632.495 336.334 633.732 334.5 635.621 333.736L693.543 310.312C696.851 308.974 700.455 311.432 700.417 314.999L696.56 685.354C696.526 688.525 693.589 690.864 690.491 690.187L636.427 678.36C634.132 677.858 632.495 675.825 632.495 673.475ZM505.946 643.918L502.541 399.254C502.513 397.276 503.654 395.467 505.452 394.641L600.907 350.759C604.219 349.236 607.995 351.656 607.995 355.302V425.569C607.995 427.636 606.723 429.491 604.794 430.234L569.697 443.766C567.768 444.51 566.495 446.364 566.495 448.431V488.5C566.495 491.262 568.734 493.5 571.495 493.5H594.495C597.257 493.5 599.495 495.739 599.495 498.5V546C599.495 548.761 597.257 551 594.495 551H571.495C568.734 551 566.495 553.239 566.495 556V657.69C566.495 658.859 566.085 659.992 565.337 660.891L563.661 662.901C562.353 664.471 560.221 665.087 558.278 664.456L509.403 648.605C507.366 647.944 505.975 646.06 505.946 643.918ZM203.495 475C199.666 427.136 150.94 409.513 110.817 411.603C107.932 411.754 105.889 414.381 106.342 417.235C109.364 436.27 119.499 502.047 119.495 528C119.492 554.011 109.316 619.661 106.321 638.421C105.875 641.218 107.835 643.809 110.658 644.03C156.157 647.578 203.587 621.877 205.995 579C207.276 556.201 200.482 539.247 191.953 530.48C188.974 527.418 188.665 521.058 191.79 518.145C199.185 511.251 205.456 499.509 203.495 475ZM218.495 445.261V610.107C218.495 613.193 221.265 615.543 224.31 615.04L268.81 607.691C271.224 607.293 272.995 605.205 272.995 602.758V586.081C272.995 583.489 271.015 581.326 268.432 581.1L249.059 579.4C246.476 579.174 244.495 577.012 244.495 574.419V547.5C244.495 544.739 246.734 542.5 249.495 542.5H264.995C267.757 542.5 269.995 540.261 269.995 537.5V520.277C269.995 517.815 268.203 515.719 265.77 515.337L248.721 512.663C246.288 512.281 244.495 510.186 244.495 507.723V483.863C244.495 480.472 247.8 478.064 251.028 479.104L267.463 484.396C270.691 485.436 273.995 483.028 273.995 479.637V459.198C273.995 457 272.561 455.061 270.46 454.417L224.96 440.48C221.746 439.496 218.495 441.899 218.495 445.261ZM289.995 598.31V465C289.995 462.239 292.234 460 294.995 460H311.031C313.779 460 316.011 462.217 316.031 464.964L316.964 596.075C316.982 598.601 315.112 600.744 312.607 601.069L295.638 603.268C292.647 603.656 289.995 601.327 289.995 598.31ZM335.929 463.965L333.58 595.945C333.535 598.526 335.461 600.718 338.027 601.003L350.798 602.422C353.63 602.737 356.152 600.625 356.339 597.782L361.272 522.898C361.398 520.986 362.985 519.5 364.901 519.5C366.453 519.5 367.835 520.486 368.34 521.954L382.335 562.627C383.029 564.645 384.928 566 387.063 566H390.699C392.699 566 394.506 564.808 395.294 562.97L409.469 529.904C410.069 528.503 411.569 527.714 413.064 528.013C414.499 528.3 415.561 529.518 415.65 530.979L420.759 615.102C420.898 617.393 422.579 619.294 424.835 619.714L436.343 621.855C439.496 622.442 442.378 619.951 442.254 616.746L435.205 434.41C435.092 431.494 432.517 429.294 429.619 429.638L408.983 432.086C406.891 432.334 405.178 433.868 404.702 435.922L391.87 491.246C391.392 493.309 389.315 494.579 387.261 494.065C385.874 493.719 384.8 492.621 384.485 491.226L376.587 456.325C375.983 453.652 373.338 451.964 370.659 452.541L339.876 459.166C337.605 459.654 335.97 461.643 335.929 463.965ZM1054.5 269V705.5C1054.5 708.261 1056.73 710.5 1059.5 710.5H1107.5C1110.26 710.5 1112.5 708.261 1112.5 705.5V537.5C1112.5 534.738 1114.73 532.5 1117.5 532.5H1148.5C1151.26 532.5 1153.5 534.738 1153.5 537.5V691.699C1153.5 694.919 1156.5 697.3 1159.63 696.568L1209.63 684.901C1211.89 684.373 1213.5 682.356 1213.5 680.032V292.382C1213.5 290.098 1211.96 288.11 1209.75 287.566C1200.06 285.191 1173.89 279.018 1158.48 277.735C1155.73 277.506 1153.5 279.738 1153.5 282.5V458.5C1153.5 461.262 1151.26 463.5 1148.5 463.5H1117.5C1114.73 463.5 1112.5 461.262 1112.5 458.5V275.087C1112.5 272.709 1110.84 270.667 1108.5 270.231C1099.59 268.57 1077.47 264.746 1059.49 264.095C1056.73 263.995 1054.5 266.238 1054.5 269ZM1242 668.347V305.52C1242 302.231 1245.12 299.838 1248.28 300.748C1293 313.633 1335.96 335.026 1346.85 340.625C1348.5 341.47 1349.5 343.154 1349.5 345.002V391.034C1349.5 394.145 1346.68 396.501 1343.62 395.957L1301.87 388.543C1298.81 387.999 1296 390.355 1296 393.466V451.388C1296 453.993 1298 456.162 1300.59 456.371L1340.9 459.628C1343.49 459.838 1345.5 462.007 1345.5 464.612V507.388C1345.5 509.993 1343.49 512.162 1340.9 512.371L1300.59 515.628C1298 515.838 1296 518.007 1296 520.612V586.941C1296 589.911 1298.57 592.226 1301.52 591.913L1346.97 587.087C1349.92 586.773 1352.5 589.089 1352.5 592.059V639.243C1352.5 641.468 1351.02 643.426 1348.89 644.045L1248.39 673.149C1245.19 674.075 1242 671.676 1242 668.347ZM1376 627V362.173C1376 359.756 1377.72 357.686 1380.1 357.253L1385.94 356.191C1386.64 356.065 1387.34 356.084 1388.03 356.258C1430.37 367.025 1483.92 399.358 1495.5 431.5C1508.03 466.33 1493.4 488.22 1474.42 503.58C1472.11 505.457 1471.77 508.915 1473.8 511.101L1517.49 558.149C1519.75 560.581 1519.05 564.499 1516.1 566.006L1473.41 587.757C1471.4 588.785 1468.94 588.33 1467.43 586.647L1438.21 554.185C1435.15 550.779 1429.5 552.947 1429.5 557.53V606.38C1429.5 608.021 1428.7 609.551 1427.31 610.423C1418.71 615.82 1395.36 628.661 1380.95 631.457C1378.24 631.982 1376 629.761 1376 627ZM142.499 489.5C141.433 482.5 140.88 455 144.064 455C148.045 455 169.44 456.288 170.933 481.5C172.425 506.712 149.538 506.712 147.05 506.712C145.118 506.712 143.653 497.085 142.593 490.118L142.499 489.5ZM144.562 552.095C145.226 550.041 147.946 545.932 153.518 545.932C160.484 545.932 171.928 548.733 171.928 566.662C171.928 584.591 158.458 602.5 149.999 602.5C143.293 602.5 143.448 594.908 143.551 589.807C143.579 588.475 143.602 587.312 143.499 586.5C143.235 584.418 143.644 574.798 144.045 565.341L144.045 565.341L144.045 565.34L144.046 565.339L144.046 565.337C144.249 560.547 144.451 555.799 144.562 552.095ZM1423 423.5V467.5C1435.83 469.167 1460.7 467.7 1457.5 448.5C1454.3 429.3 1437.5 423.833 1429.5 423.5H1423Z"/>
</svg>
