<svg width="101" height="101" viewBox="0 0 101 101" fill="none" xmlns="http://www.w3.org/2000/svg">
<path d="M48.1885 1.79402C49.3883 0.343774 51.6117 0.343775 52.8115 1.79402L59.5645 9.95664C60.3782 10.9402 61.7252 11.3011 62.9216 10.8562L72.8512 7.16363C74.6153 6.50758 76.5409 7.61929 76.8548 9.47514L78.6217 19.9206C78.8346 21.1793 79.8207 22.1654 81.0794 22.3783L91.5249 24.1452C93.3807 24.4591 94.4924 26.3847 93.8364 28.1488L90.1438 38.0784C89.6989 39.2748 90.0598 40.6218 91.0434 41.4355L99.206 48.1885C100.656 49.3883 100.656 51.6117 99.206 52.8115L91.0434 59.5645C90.0598 60.3782 89.6989 61.7252 90.1438 62.9216L93.8364 72.8512C94.4924 74.6153 93.3807 76.5409 91.5249 76.8548L81.0794 78.6217C79.8207 78.8346 78.8346 79.8207 78.6217 81.0794L76.8548 91.5249C76.5409 93.3807 74.6153 94.4924 72.8512 93.8364L62.9216 90.1438C61.7252 89.6989 60.3782 90.0598 59.5645 91.0434L52.8115 99.206C51.6117 100.656 49.3883 100.656 48.1885 99.206L41.4355 91.0434C40.6218 90.0598 39.2748 89.6989 38.0784 90.1438L28.1488 93.8364C26.3847 94.4924 24.4591 93.3807 24.1452 91.5249L22.3783 81.0794C22.1654 79.8207 21.1793 78.8346 19.9206 78.6217L9.47514 76.8548C7.61929 76.5409 6.50758 74.6153 7.16363 72.8512L10.8562 62.9216C11.3011 61.7252 10.9402 60.3782 9.95663 59.5645L1.79402 52.8115C0.343774 51.6117 0.343775 49.3883 1.79402 48.1885L9.95664 41.4355C10.9402 40.6218 11.3011 39.2748 10.8562 38.0784L7.16363 28.1488C6.50758 26.3847 7.61929 24.4591 9.47514 24.1452L19.9206 22.3783C21.1793 22.1654 22.1654 21.1793 22.3783 19.9206L24.1452 9.47514C24.4591 7.61929 26.3847 6.50758 28.1488 7.16363L38.0784 10.8562C39.2748 11.3011 40.6218 10.9402 41.4355 9.95663L48.1885 1.79402Z"/>
</svg>
